<svg xmlns="http://www.w3.org/2000/svg" viewBox="0 0 413.56 278.5"><defs><style>.cls-1{fill:#3f454d;}.cls-2{fill:#3a97d3;}.cls-3{fill:#3a95d2;}.cls-4{fill:#3e454d;}</style></defs><title>1Asset 1</title><g id="Layer_2" data-name="Layer 2"><g id="Layer_1-2" data-name="Layer 1"><polygon class="cls-1" points="24.34 170.34 15.84 193.96 25.49 227.22 16.49 227.22 8.64 197.34 8.28 197.34 8.28 227.22 0 227.22 0 170.41 8.28 170.41 8.28 191.87 8.64 191.87 15.62 170.34 24.34 170.34"/><path class="cls-1" d="M40.32,227.94a34.61,34.61,0,0,1-5.87-.4,6.54,6.54,0,0,1-3.56-1.65,6.88,6.88,0,0,1-1.8-3.64,31.38,31.38,0,0,1-.51-6.33V170.34h8.28v45.58a15.38,15.38,0,0,0,.15,2.41,2.7,2.7,0,0,0,.54,1.37,2,2,0,0,0,1.08.64,7.44,7.44,0,0,0,1.83.18,7.19,7.19,0,0,0,1.77-.18,1.88,1.88,0,0,0,1-.64,3.12,3.12,0,0,0,.51-1.37,17,17,0,0,0,.14-2.41V170.34H52v45.58a31.49,31.49,0,0,1-.5,6.33,7,7,0,0,1-1.8,3.64,6.54,6.54,0,0,1-3.56,1.65,34.2,34.2,0,0,1-5.8.4"/><path class="cls-1" d="M66.31,227.22H58V170.34H69.8a35.62,35.62,0,0,1,6,.4,6.81,6.81,0,0,1,3.63,1.65,6.56,6.56,0,0,1,1.79,3.53,31.06,31.06,0,0,1,.47,6v6a11.71,11.71,0,0,1-.47,3.63A6.49,6.49,0,0,1,80,193.81a4.67,4.67,0,0,1-1.64,1.26,10.15,10.15,0,0,1-1.75.61V196a10.09,10.09,0,0,1,2.07.76,4.28,4.28,0,0,1,1.6,1.44,7.08,7.08,0,0,1,1,2.48,17.32,17.32,0,0,1,.36,3.89v22.68H73.37v-24a6.28,6.28,0,0,0-.58-3.2q-.57-.9-2.73-.9H66.31Zm0-34.63h3.75a3.41,3.41,0,0,0,2.66-.79,4.72,4.72,0,0,0,.65-2.88v-7a18,18,0,0,0-.11-2.19,2.91,2.91,0,0,0-.47-1.34,1.83,1.83,0,0,0-1.08-.68,7.92,7.92,0,0,0-1.87-.18H66.31Z"/><polygon class="cls-1" points="106.06 177.25 99.86 177.25 99.86 227.22 91.58 227.22 91.58 177.25 85.32 177.25 85.32 170.34 106.06 170.34 106.06 177.25"/><polygon class="cls-1" points="132.19 170.34 123.7 207.13 123.7 227.22 115.42 227.22 115.42 207.13 107.21 170.34 115.42 170.34 119.52 196.04 119.81 196.04 124.13 170.34 132.19 170.34"/><polygon class="cls-1" points="151.6 227.22 143.06 191.72 142.78 191.72 142.78 227.22 135.65 227.22 135.65 170.34 144.79 170.34 153 206.84 153.29 206.84 153.29 170.34 160.41 170.34 160.41 227.22 151.6 227.22"/><path class="cls-1" d="M181.51,227.22V214.55h-7v12.67h-8.07V181.57a33.7,33.7,0,0,1,.47-6.3,6.72,6.72,0,0,1,1.76-3.6,6.61,6.61,0,0,1,3.57-1.65,34,34,0,0,1,5.79-.4,31.73,31.73,0,0,1,5.8.43,6.92,6.92,0,0,1,3.6,1.73,7,7,0,0,1,1.84,3.64,30.74,30.74,0,0,1,.5,6.15v45.65ZM178,177a7,7,0,0,0-1.76.18,2,2,0,0,0-1.08.64,2.61,2.61,0,0,0-.51,1.37,21.17,21.17,0,0,0-.1,2.34v26.21h7V181.57a16.26,16.26,0,0,0-.14-2.34,3.12,3.12,0,0,0-.51-1.37,1.88,1.88,0,0,0-1.08-.64A7.57,7.57,0,0,0,178,177"/><polygon class="cls-1" points="201.53 170.34 203.9 215.05 204.19 215.05 208 170.34 218.59 170.34 221.83 215.05 222.12 215.05 225.21 170.34 233.56 170.34 226.94 227.22 216.43 227.22 213.4 182.07 213.12 182.07 209.16 227.22 198.5 227.22 193.25 170.34 201.53 170.34"/><path class="cls-1" d="M260,215.92a34.28,34.28,0,0,1-.47,6.33,6.67,6.67,0,0,1-1.79,3.64,6.81,6.81,0,0,1-3.63,1.65,44.53,44.53,0,0,1-11.91,0,6.54,6.54,0,0,1-3.59-1.65,6.71,6.71,0,0,1-1.76-3.64,34.28,34.28,0,0,1-.47-6.33V181.57a33.7,33.7,0,0,1,.47-6.3,6.65,6.65,0,0,1,1.76-3.6,6.54,6.54,0,0,1,3.59-1.65,44.53,44.53,0,0,1,11.91,0,6.81,6.81,0,0,1,3.63,1.65,6.61,6.61,0,0,1,1.79,3.6,33.7,33.7,0,0,1,.47,6.3Zm-8.28-34.36c0-1.91-.22-3.15-.65-3.7s-1.39-.82-2.88-.82a8,8,0,0,0-1.83.17,1.92,1.92,0,0,0-1.08.69,2.67,2.67,0,0,0-.51,1.4,19.89,19.89,0,0,0-.11,2.26v34.29a21.56,21.56,0,0,0,.11,2.41,2.67,2.67,0,0,0,.51,1.4,1.91,1.91,0,0,0,1.08.68,7.39,7.39,0,0,0,1.83.18,7.53,7.53,0,0,0,1.84-.18,1.92,1.92,0,0,0,1.08-.71,3,3,0,0,0,.5-1.44,20.81,20.81,0,0,0,.11-2.34Z"/><path class="cls-1" d="M289.44,215.55a32.22,32.22,0,0,1-.47,6.13,6.35,6.35,0,0,1-1.79,3.52,6.94,6.94,0,0,1-3.63,1.62,35.62,35.62,0,0,1-6,.4H265.82V170.34h11.77a35.62,35.62,0,0,1,6,.4,6.94,6.94,0,0,1,3.63,1.62,6.33,6.33,0,0,1,1.79,3.49,31.5,31.5,0,0,1,.47,6.08Zm-8.28-33.62a13.52,13.52,0,0,0-.15-2.23,3.19,3.19,0,0,0-.5-1.37,1.69,1.69,0,0,0-1.05-.65,9.7,9.7,0,0,0-1.83-.14H274.1v42.55h3.53a7.39,7.39,0,0,0,1.83-.18,1.83,1.83,0,0,0,1.05-.65,2.91,2.91,0,0,0,.5-1.37,14.67,14.67,0,0,0,.15-2.34Z"/><polygon class="cls-1" points="311.22 227.22 302.68 191.72 302.4 191.72 302.4 227.22 295.27 227.22 295.27 170.34 304.41 170.34 312.62 206.84 312.91 206.84 312.91 170.34 320.04 170.34 320.04 227.22 311.22 227.22"/><path class="cls-1" d="M341.13,227.22V214.55h-7v12.67h-8.07V181.57a33.7,33.7,0,0,1,.47-6.3,6.66,6.66,0,0,1,1.77-3.6,6.54,6.54,0,0,1,3.56-1.65,34,34,0,0,1,5.8-.4,31.69,31.69,0,0,1,5.79.43,6.92,6.92,0,0,1,3.6,1.73,7,7,0,0,1,1.84,3.64,30.74,30.74,0,0,1,.5,6.15v45.65ZM337.6,177a7,7,0,0,0-1.76.18,2,2,0,0,0-1.08.64,2.61,2.61,0,0,0-.5,1.37,18.67,18.67,0,0,0-.11,2.34v26.21h7V181.57a16.26,16.26,0,0,0-.14-2.34,3.12,3.12,0,0,0-.51-1.37,1.88,1.88,0,0,0-1.08-.64,7.57,7.57,0,0,0-1.8-.18"/><rect class="cls-2" x="355.39" y="217.71" width="7.56" height="9.51"/><polygon class="cls-1" points="385.56 227.22 369.28 227.22 369.28 170.34 385.48 170.34 385.48 177.18 377.56 177.18 377.56 185.46 385.27 185.46 385.27 192.01 377.56 192.01 377.56 220.09 385.56 220.09 385.56 227.22"/><path class="cls-1" d="M401.9,227.94a34.61,34.61,0,0,1-5.87-.4,6.61,6.61,0,0,1-3.57-1.65,7,7,0,0,1-1.79-3.64,31.38,31.38,0,0,1-.51-6.33V170.34h8.28v45.58a17,17,0,0,0,.14,2.41,2.79,2.79,0,0,0,.55,1.37,2,2,0,0,0,1.08.64,7.39,7.39,0,0,0,1.83.18,7.19,7.19,0,0,0,1.77-.18,1.88,1.88,0,0,0,1-.64,3,3,0,0,0,.5-1.37,15.38,15.38,0,0,0,.15-2.41V170.34h8.06v45.58a32.25,32.25,0,0,1-.5,6.33,7,7,0,0,1-1.8,3.64,6.57,6.57,0,0,1-3.57,1.65,34,34,0,0,1-5.79.4"/><path class="cls-3" d="M128.51,265.66c-.55,0-.9-.13-1-.4a1.13,1.13,0,0,1-.11-.87,2.23,2.23,0,0,1,.47-.9,1.3,1.3,0,0,1,.7-.47.89.89,0,0,1,.56.06,1.14,1.14,0,0,1,.44.34,1.21,1.21,0,0,1,.24.54,1.44,1.44,0,0,1-.06.65.94.94,0,0,1-.33.82,1.47,1.47,0,0,1-.87.23"/><path class="cls-3" d="M133.55,265.66c-.55,0-.9-.13-1-.4a1.13,1.13,0,0,1-.11-.87,2.23,2.23,0,0,1,.47-.9,1.3,1.3,0,0,1,.7-.47.89.89,0,0,1,.56.06,1.14,1.14,0,0,1,.44.34,1.21,1.21,0,0,1,.24.54,1.44,1.44,0,0,1-.06.65.94.94,0,0,1-.33.82,1.47,1.47,0,0,1-.87.23"/><path class="cls-3" d="M138.58,265.66c-.54,0-.89-.13-1-.4a1.18,1.18,0,0,1-.1-.87,2.23,2.23,0,0,1,.47-.9,1.26,1.26,0,0,1,.7-.47.89.89,0,0,1,.56.06,1.14,1.14,0,0,1,.44.34,1.27,1.27,0,0,1,.17,1.19.94.94,0,0,1-.32.82,1.51,1.51,0,0,1-.88.23"/><path class="cls-3" d="M154.9,258.89a14,14,0,0,1,.32-3,7.33,7.33,0,0,1,1.07-2.5,5.31,5.31,0,0,1,2-1.72,6.39,6.39,0,0,1,3-.63,6.3,6.3,0,0,1,1.73.27,11.11,11.11,0,0,1,1.89.73,13.35,13.35,0,0,1,1.84,1.1,10.19,10.19,0,0,1,1.59,1.37,6.72,6.72,0,0,1,1.1,1.6,3.93,3.93,0,0,1,.41,1.7,7.11,7.11,0,0,1-1,3.87,7.7,7.7,0,0,1-2.63,2.57,10.47,10.47,0,0,1-3.62,1.32,12.55,12.55,0,0,1-4,.09,4.14,4.14,0,0,1-1.62-1.1,6.66,6.66,0,0,1-1.14-1.7,8.66,8.66,0,0,1-.68-2,9.87,9.87,0,0,1-.22-1.95m2-.52a10.34,10.34,0,0,0,.19,2,5.77,5.77,0,0,0,.64,1.82,3.77,3.77,0,0,0,1.22,1.32,3.32,3.32,0,0,0,1.9.51,9.33,9.33,0,0,0,2.65-.38,7,7,0,0,0,2.26-1.14,5.89,5.89,0,0,0,1.57-1.89,5.62,5.62,0,0,0,.58-2.62,4.85,4.85,0,0,0-.6-2.2,4.27,4.27,0,0,0-1.29-1.38,5.43,5.43,0,0,0-1.7-.76c-.61-.16-1.2-.28-1.77-.38s-1.08-.18-1.55-.24a2.45,2.45,0,0,1-1-.29,2.13,2.13,0,0,0-1.6.63,4.32,4.32,0,0,0-.93,1.54,7.49,7.49,0,0,0-.44,1.87,15.44,15.44,0,0,0-.1,1.62"/><path class="cls-3" d="M170.9,258.78a6.82,6.82,0,0,1,.7-3.12,10.75,10.75,0,0,1,1.94-2.82,11.58,11.58,0,0,1,2.73-2.14,8.82,8.82,0,0,1,3.1-1.07,6.07,6.07,0,0,1,3,.37,5.41,5.41,0,0,1,2.52,2.15l-.29-11a2.1,2.1,0,0,1,.38-.95,1,1,0,0,1,.88-.46.7.7,0,0,1,.44.13.8.8,0,0,1,.22.34,1.27,1.27,0,0,1,.07.44v.41q0,3.34.06,6c0,1.79.07,3.55.1,5.25s0,3.47,0,5.26-.07,3.82-.19,6.07a1.75,1.75,0,0,1-.26,1.43.83.83,0,0,1-.84.27,1.34,1.34,0,0,1-.77-.6,1.25,1.25,0,0,1-.15-1.1,17.15,17.15,0,0,1-1.66.77,14.92,14.92,0,0,1-1.81.63,17.82,17.82,0,0,1-1.86.43,10.51,10.51,0,0,1-1.82.16,6.42,6.42,0,0,1-4.85-1.76,7.13,7.13,0,0,1-1.68-5.12m2,0a5.65,5.65,0,0,0,.62,2.88,3.45,3.45,0,0,0,1.64,1.48,5.19,5.19,0,0,0,2.3.38,11.92,11.92,0,0,0,2.59-.41,16.46,16.46,0,0,0,2.53-.89,16.85,16.85,0,0,0,2.1-1.1v-5.57a5.56,5.56,0,0,0-1.48-2.93,4.09,4.09,0,0,0-2.34-1.11,5.9,5.9,0,0,0-2.73.38,8.11,8.11,0,0,0-2.58,1.55,8.82,8.82,0,0,0-1.9,2.42,6.07,6.07,0,0,0-.75,2.92"/><path class="cls-3" d="M188.39,258.07a9,9,0,0,1,.56-3.15,8.65,8.65,0,0,1,1.56-2.71,8,8,0,0,1,2.42-1.89,6.77,6.77,0,0,1,3.13-.71,12.49,12.49,0,0,1,1.57.1,5.38,5.38,0,0,1,1.54.42,3.24,3.24,0,0,1,1.16.9,2.35,2.35,0,0,1,.45,1.5,5.06,5.06,0,0,1-1.24,2.93,5.83,5.83,0,0,1-2.54,1.7,6.42,6.42,0,0,1-3.13.24,5.93,5.93,0,0,1-3.05-1.5,4.79,4.79,0,0,0-.38,2.93,4.68,4.68,0,0,0,1.26,2.29,7.34,7.34,0,0,0,2.42,1.57,10.73,10.73,0,0,0,3.06.76,11.6,11.6,0,0,0,3.22-.13,8.12,8.12,0,0,0,2.87-1.09.77.77,0,0,1,.6.27.84.84,0,0,1,.25.61,7.23,7.23,0,0,1-2.75,1.8,10,10,0,0,1-3.34.63,11.81,11.81,0,0,1-3.43-.45,10.26,10.26,0,0,1-3.08-1.45,8.28,8.28,0,0,1-2.24-2.37,6.27,6.27,0,0,1-.89-3.2m3.1-3.81a3.56,3.56,0,0,0,1.89,1.13,5.56,5.56,0,0,0,2.36.12,5,5,0,0,0,2.13-.88,3,3,0,0,0,1.21-1.89,2.4,2.4,0,0,0-1.61-1.29,4.85,4.85,0,0,0-2.27,0,6.57,6.57,0,0,0-2.23,1,4.41,4.41,0,0,0-1.48,1.74"/><path class="cls-3" d="M208.9,265.05a4.69,4.69,0,0,1-.16-1.15c0-.5-.05-1.09-.06-1.74s0-1.35,0-2.09,0-1.47,0-2.17-.08-1.36-.15-2a7.5,7.5,0,0,0-.31-1.52l-4.07,0a1.68,1.68,0,0,1-1-.45.65.65,0,0,1-.13-.69,1.22,1.22,0,0,1,.67-.6,2.9,2.9,0,0,1,1.35-.22,4,4,0,0,0,.7,0l1-.07,1-.06a2.74,2.74,0,0,1,.7,0c-.12-.82-.23-1.69-.34-2.61s-.2-1.84-.27-2.78-.14-1.87-.17-2.8,0-1.81,0-2.65a.75.75,0,0,1,.38-.41,1.7,1.7,0,0,1,.62-.18,1.12,1.12,0,0,1,.58.11.69.69,0,0,1,.35.48l1.06,10.69,5.39-.23a1.25,1.25,0,0,1,.89.29.89.89,0,0,1,.31.66,1,1,0,0,1-.29.69,1.25,1.25,0,0,1-.91.35l-5.07.29v4.41q0,2.16.06,4.44a5.75,5.75,0,0,1-.13,1,4.21,4.21,0,0,1-.38,1.09,1,1,0,0,1-.63.54c-.26.06-.54-.16-.85-.64"/><path class="cls-3" d="M223.9,265.51a11.13,11.13,0,0,1-2.82-.36,7.91,7.91,0,0,1-2.52-1.2,7.11,7.11,0,0,1-1.93-2.22,8.62,8.62,0,0,1-1-3.39,7.62,7.62,0,0,1,.52-3.81,9,9,0,0,1,2-3,8.28,8.28,0,0,1,2.8-1.85,5.8,5.8,0,0,1,3-.42,4.24,4.24,0,0,1,2.47,1.24,5.4,5.4,0,0,1,1.37,3.2,1.36,1.36,0,0,1-.15.79c-.1.11-.35.17-.76.17a.75.75,0,0,1-.62-.25,1.7,1.7,0,0,1-.32-.63c-.08-.25-.15-.52-.22-.82a3.41,3.41,0,0,0-.32-.82,2,2,0,0,0-.59-.63,1.81,1.81,0,0,0-1-.25,6.58,6.58,0,0,0-2.62.5,5.52,5.52,0,0,0-3.15,3.42,7.85,7.85,0,0,0-.41,2.56,5.32,5.32,0,0,0,.47,2.42,5.25,5.25,0,0,0,1.32,1.75,5.91,5.91,0,0,0,1.92,1.13,8.82,8.82,0,0,0,2.28.54,9.89,9.89,0,0,0,2.37,0,10,10,0,0,0,2.24-.53c.47.35.71.67.72.94a.88.88,0,0,1-.36.72,3,3,0,0,1-1.06.48,12.61,12.61,0,0,1-1.36.28,8.59,8.59,0,0,1-1.3.1,3,3,0,0,1-.88-.09"/><path class="cls-3" d="M238.43,253a7.61,7.61,0,0,0-2.77,1.15A6.26,6.26,0,0,0,234,255.9a6.4,6.4,0,0,0-.85,2.1,15.79,15.79,0,0,0-.29,2.28c0,.78,0,1.52,0,2.25s0,1.38,0,2a1.8,1.8,0,0,1-.48.55,1,1,0,0,1-.62.24.69.69,0,0,1-.55-.31,1.75,1.75,0,0,1-.28-1l-.32-22.82a1,1,0,0,1,.2-.76.74.74,0,0,1,.57-.27,1.24,1.24,0,0,1,.72.27,1.87,1.87,0,0,1,.62.79c-.08,1.33-.13,2.48-.14,3.46s0,1.91,0,2.81.07,1.83.12,2.8.09,2.1.13,3.41a8.17,8.17,0,0,1,1.77-1.42,9.73,9.73,0,0,1,2.19-1,7.87,7.87,0,0,1,2.28-.37,4.87,4.87,0,0,1,2.1.42,4.08,4.08,0,0,1,1.61,1.41,5.58,5.58,0,0,1,.83,2.58c.08,1,.15,1.82.21,2.53s.1,1.42.13,2.13,0,1.45,0,2.24,0,1.74,0,2.86a1.74,1.74,0,0,1-.52,1.27.71.71,0,0,1-.82,0,1.81,1.81,0,0,1-.69-1,3.23,3.23,0,0,1-.13-1.7c.11-1.68.15-3.11.11-4.28a21.15,21.15,0,0,0-.27-2.93,6.71,6.71,0,0,0-.59-1.85,3.2,3.2,0,0,0-.81-1,2.12,2.12,0,0,0-.9-.45,6.3,6.3,0,0,0-.91-.14"/><path class="cls-3" d="M257.71,265.07a15.61,15.61,0,0,0,.63-3.6,17.16,17.16,0,0,0-.17-3.54,14.15,14.15,0,0,0-.82-3.14,8.79,8.79,0,0,0-1.33-2.4,4.3,4.3,0,0,0-1.73-1.36,2.52,2.52,0,0,0-2,0,5.53,5.53,0,0,0-2.08,1.73,15.84,15.84,0,0,0-2,3.75l-.61,8.26a1,1,0,0,1-.37.62,1,1,0,0,1-.61.2,1.06,1.06,0,0,1-.62-.19.85.85,0,0,1-.33-.63l-.21-13.15c0-.06,0-.12.13-.19a1.73,1.73,0,0,1,.28-.19,2,2,0,0,1,.41-.21h.15a.68.68,0,0,1,.58.38,4.43,4.43,0,0,1,.4.85,4.62,4.62,0,0,1,.22.87q.06.39.06.42a12.47,12.47,0,0,1,2.62-3.41,5.54,5.54,0,0,1,2.58-1.34,3.68,3.68,0,0,1,2.38.41,7.11,7.11,0,0,1,2.11,1.81,11.79,11.79,0,0,1,1.69,2.84,19.43,19.43,0,0,1,1.13,3.53,20.36,20.36,0,0,1,.45,3.85,16.57,16.57,0,0,1-.34,3.82,1.45,1.45,0,0,1-.61.72,1.61,1.61,0,0,1-.85.25,1.29,1.29,0,0,1-.76-.23.91.91,0,0,1-.35-.74"/><path class="cls-3" d="M262.36,265.07c0-.29,0-.74-.07-1.34s-.06-1.3-.09-2.07-.05-1.58-.07-2.43,0-1.66-.07-2.43-.06-1.47-.08-2.08,0-1.07-.06-1.36v-.15a1,1,0,0,1,.22-.67.89.89,0,0,1,.55-.28,1.11,1.11,0,0,1,.64.1,1.56,1.56,0,0,1,.56.44,52.88,52.88,0,0,1,.25,5.92q0,3-.11,6.06a3.28,3.28,0,0,1-.36.43,1.71,1.71,0,0,1-.47.32.65.65,0,0,1-.47,0c-.15-.05-.27-.21-.37-.49M262,246.21a1.09,1.09,0,0,1,.27-.78.93.93,0,0,1,.7-.28.66.66,0,0,1,.61.35,1.78,1.78,0,0,1,.06,1.6.61.61,0,0,1-.52.4,1,1,0,0,1-.81-.41,1.5,1.5,0,0,1-.31-.88"/><path class="cls-3" d="M252.55,274.89c0-.2,0-.4,0-.62a2.05,2.05,0,0,1,.14-.58,1,1,0,0,1,.34-.41.82.82,0,0,1,.6-.09,9.69,9.69,0,0,0,4.25,2.77,5.53,5.53,0,0,0,3.81-.19,6,6,0,0,0,2.77-2.71,10.48,10.48,0,0,0,1.15-4.79,41.07,41.07,0,0,0,.44-4.5c.06-1.38.07-2.69,0-3.94s-.1-2.45-.19-3.6-.16-2.32-.22-3.49a5.18,5.18,0,0,1,.55-1.6c.2-.32.4-.49.6-.52a.54.54,0,0,1,.52.26,1.77,1.77,0,0,1,.33.75c.17,1.36.31,2.92.41,4.67s.12,3.55.07,5.39a53.35,53.35,0,0,1-.43,5.51,27.71,27.71,0,0,1-1.09,5,13.91,13.91,0,0,1-1.92,3.9,5.65,5.65,0,0,1-2.87,2.15,6.55,6.55,0,0,1-4-.2,17.37,17.37,0,0,1-5.3-3.18M266,244a1.41,1.41,0,0,1,.23-.82.87.87,0,0,1,.79-.35.57.57,0,0,1,.62.39,3,3,0,0,1,.11.75,1.7,1.7,0,0,1-.19.79.7.7,0,0,1-.71.38.68.68,0,0,1-.68-.36A1.77,1.77,0,0,1,266,244"/><path class="cls-3" d="M283.69,258.89a14,14,0,0,1,.32-3,7.33,7.33,0,0,1,1.07-2.5,5.31,5.31,0,0,1,1.95-1.72,6.39,6.39,0,0,1,3-.63,6.3,6.3,0,0,1,1.73.27,11.11,11.11,0,0,1,1.89.73,13.35,13.35,0,0,1,1.84,1.1,10.19,10.19,0,0,1,1.59,1.37,6.67,6.67,0,0,1,1.09,1.6,3.79,3.79,0,0,1,.41,1.7,7.11,7.11,0,0,1-1,3.87,7.7,7.7,0,0,1-2.63,2.57,10.47,10.47,0,0,1-3.62,1.32,12.55,12.55,0,0,1-4,.09,4.14,4.14,0,0,1-1.62-1.1,6.66,6.66,0,0,1-1.14-1.7,8.66,8.66,0,0,1-.68-2,9.18,9.18,0,0,1-.22-1.95m2-.52a11.22,11.22,0,0,0,.19,2,6,6,0,0,0,.65,1.82,3.77,3.77,0,0,0,1.22,1.32,3.32,3.32,0,0,0,1.9.51,9.33,9.33,0,0,0,2.65-.38,7,7,0,0,0,2.26-1.14,5.73,5.73,0,0,0,1.56-1.89,5.62,5.62,0,0,0,.59-2.62,4.85,4.85,0,0,0-.6-2.2,4.27,4.27,0,0,0-1.29-1.38,5.43,5.43,0,0,0-1.7-.76c-.61-.16-1.2-.28-1.77-.38s-1.09-.18-1.55-.24a2.45,2.45,0,0,1-1-.29,2.12,2.12,0,0,0-1.6.63,4.32,4.32,0,0,0-.93,1.54,7.49,7.49,0,0,0-.44,1.87,15.84,15.84,0,0,0-.11,1.62"/><path class="cls-3" d="M299.69,258.78a6.82,6.82,0,0,1,.7-3.12,11,11,0,0,1,1.93-2.82,11.84,11.84,0,0,1,2.74-2.14,8.82,8.82,0,0,1,3.1-1.07,6.07,6.07,0,0,1,3,.37,5.41,5.41,0,0,1,2.52,2.15l-.29-11a2.1,2.1,0,0,1,.38-.95,1,1,0,0,1,.88-.46.7.7,0,0,1,.44.13.8.8,0,0,1,.22.34,1.27,1.27,0,0,1,.07.44v.41q0,3.34.06,6c0,1.79.07,3.55.1,5.25s0,3.47,0,5.26-.07,3.82-.19,6.07a1.75,1.75,0,0,1-.26,1.43.83.83,0,0,1-.84.27,1.34,1.34,0,0,1-.77-.6,1.25,1.25,0,0,1-.15-1.1,17.15,17.15,0,0,1-1.66.77,14.92,14.92,0,0,1-1.81.63,17.82,17.82,0,0,1-1.86.43,10.51,10.51,0,0,1-1.82.16,6.42,6.42,0,0,1-4.85-1.76,7.13,7.13,0,0,1-1.68-5.12m2,0a5.65,5.65,0,0,0,.62,2.88,3.45,3.45,0,0,0,1.64,1.48,5.19,5.19,0,0,0,2.3.38,11.92,11.92,0,0,0,2.59-.41,16.46,16.46,0,0,0,2.53-.89,16.85,16.85,0,0,0,2.1-1.1v-5.57a5.56,5.56,0,0,0-1.48-2.93,4.12,4.12,0,0,0-2.35-1.11,5.88,5.88,0,0,0-2.72.38,8.11,8.11,0,0,0-2.58,1.55,8.82,8.82,0,0,0-1.9,2.42,6.07,6.07,0,0,0-.75,2.92"/><path class="cls-3" d="M340.35,261.71a13.32,13.32,0,0,0-1.1,1.05,7.84,7.84,0,0,1-1.18,1.05,4.56,4.56,0,0,1-1.47.71,4.42,4.42,0,0,1-1.93,0,4,4,0,0,1-2.62-.84,4.53,4.53,0,0,1-1.39-2.06,9.21,9.21,0,0,1-.49-2.84,28.15,28.15,0,0,1,.09-3.18c.09-1.07.21-2.09.37-3.08s.26-1.83.32-2.53a.47.47,0,0,1,.36-.3,1.57,1.57,0,0,1,.65,0,1.64,1.64,0,0,1,.63.22.63.63,0,0,1,.32.5,8.47,8.47,0,0,1,0,2c-.08.78-.17,1.6-.28,2.44s-.19,1.71-.25,2.58a10.15,10.15,0,0,0,.11,2.38,4.06,4.06,0,0,0,.76,1.81,2.62,2.62,0,0,0,1.74.95,3.17,3.17,0,0,0,2.2-.55,6.11,6.11,0,0,0,1.92-2.2,13.45,13.45,0,0,0,1.29-3.75,21.29,21.29,0,0,0,.3-5.21,1,1,0,0,1,.44-.62,1.68,1.68,0,0,1,.75-.28,1.16,1.16,0,0,1,.7.12.62.62,0,0,1,.34.54c-.14,1-.28,2-.44,3.08s-.29,2-.41,3-.19,1.85-.22,2.69a11,11,0,0,0,.13,2.23,3.85,3.85,0,0,0,.63,1.58,2,2,0,0,0,1.31.76,4.22,4.22,0,0,1-.74,1,.87.87,0,0,1-.87.28,1.92,1.92,0,0,1-1-.89,9.17,9.17,0,0,1-1-2.59"/><path class="cls-3" d="M345.27,273.6q0-2.49.18-5c.12-1.66.21-3.34.29-5s.1-3.4.05-5.12a34.66,34.66,0,0,0-.55-5.21,2.94,2.94,0,0,1,.69-1.92,6,6,0,0,1,1.69-1.41,8.45,8.45,0,0,1,2.09-.86,7.49,7.49,0,0,1,2-.29,7.28,7.28,0,0,1,3,.68,9.38,9.38,0,0,1,2.66,1.84A8.36,8.36,0,0,1,359.2,254a6.52,6.52,0,0,1,.58,3.18,8.46,8.46,0,0,1-.56,2.95,7.83,7.83,0,0,1-1.41,2.36,7.52,7.52,0,0,1-2.05,1.67,8.19,8.19,0,0,1-2.49.91,8.52,8.52,0,0,1-2.72.07,8.13,8.13,0,0,1-2.76-.87,7.66,7.66,0,0,0-.17,1.69q0,1,0,2c0,.69,0,1.38,0,2.07a12,12,0,0,1-.12,1.93,5.09,5.09,0,0,1-.48,1.63,2.36,2.36,0,0,1-1,1.07c-.34,0-.55-.08-.63-.22a1.69,1.69,0,0,1-.14-.81m2.49-17.84c0,.7,0,1.42,0,2.17a8.62,8.62,0,0,0,.22,2.12,5.1,5.1,0,0,0,.82,1.82,3.73,3.73,0,0,0,1.82,1.24,5.56,5.56,0,0,0,2.69-.06,6.15,6.15,0,0,0,4-3.23,5.86,5.86,0,0,0,.61-2.68,5.16,5.16,0,0,0-.92-2.88,8,8,0,0,0-2.17-2.12,7.8,7.8,0,0,0-2.69-1.13,4.93,4.93,0,0,0-2.55.09,2.82,2.82,0,0,0-1.69,1.51,4.9,4.9,0,0,0-.12,3.15"/><path class="cls-3" d="M375,264.93c-.15.53-.34.83-.55.91a.67.67,0,0,1-.66-.15,3.15,3.15,0,0,1-.65-.73c-.2-.32-.37-.61-.51-.88a7.56,7.56,0,0,1-2,1.19,9.72,9.72,0,0,1-2.45.64,8.93,8.93,0,0,1-2.53,0,5.35,5.35,0,0,1-2.24-.9,4.81,4.81,0,0,1-1.57-1.89,6.37,6.37,0,0,1-.53-3,7.45,7.45,0,0,1,.53-2.25,13.23,13.23,0,0,1,1.23-2.39,18.5,18.5,0,0,1,1.73-2.28,13.44,13.44,0,0,1,2-1.89,7.93,7.93,0,0,1,2.06-1.19,3.79,3.79,0,0,1,1.95-.25,3.17,3.17,0,0,1,2.14.66,3.84,3.84,0,0,1,1.12,1.74,9.19,9.19,0,0,1,.39,2.46c0,.92,0,1.87,0,2.85s-.07,1.93-.09,2.87a15.18,15.18,0,0,0,.14,2.52Zm-11.75-4.81a4.47,4.47,0,0,0,.58,2.19,3.48,3.48,0,0,0,1.3,1.26,4,4,0,0,0,1.77.46,6.51,6.51,0,0,0,2-.2,7.33,7.33,0,0,0,1.88-.78,5.66,5.66,0,0,0,1.51-1.26c0-.43,0-1,.07-1.59s.1-1.31.16-2,.1-1.41.11-2.12a14.17,14.17,0,0,0-.11-2,6,6,0,0,0-.42-1.63,1.81,1.81,0,0,0-.87-1,4.68,4.68,0,0,0-2.62.75,10.61,10.61,0,0,0-2.5,2.08,13.26,13.26,0,0,0-1.94,2.83,7.75,7.75,0,0,0-.88,3"/><path class="cls-3" d="M374.1,256.55a1.12,1.12,0,0,1-.64-.19,1.23,1.23,0,0,1-.44-.47.74.74,0,0,1-.07-.56c0-.18.21-.33.48-.45.76-.1,1.49-.17,2.2-.22s1.4-.08,2.09-.09,1.4,0,2.11,0,1.47,0,2.27,0a.42.42,0,0,1,.38.38,1.06,1.06,0,0,1-.16.63,2.2,2.2,0,0,1-.54.61,1.39,1.39,0,0,1-.79.31,3.18,3.18,0,0,0-1.42-.29,19.59,19.59,0,0,0-2,0l-2,.16c-.65.06-1.12.09-1.44.09m2.55,9.08q0-1.63,0-3.75c0-1.4,0-2.87,0-4.41s0-3.07-.05-4.63,0-3,0-4.36v-3.63c0-1.07,0-1.89.06-2.48a1,1,0,0,1,.21-.94.69.69,0,0,1,.67-.16,1.48,1.48,0,0,1,.73.54,2.06,2.06,0,0,1,.41,1.15l-.08,22.38a1,1,0,0,1-.49.42,1.71,1.71,0,0,1-.61.15,1.66,1.66,0,0,1-.56-.06c-.17-.05-.26-.12-.28-.22"/><path class="cls-3" d="M380.05,258.89a14,14,0,0,1,.32-3,7.14,7.14,0,0,1,1.07-2.5,5.31,5.31,0,0,1,1.95-1.72,6.39,6.39,0,0,1,3-.63,6.3,6.3,0,0,1,1.73.27A11.11,11.11,0,0,1,390,252a13.35,13.35,0,0,1,1.84,1.1,9.67,9.67,0,0,1,1.58,1.37,6.44,6.44,0,0,1,1.1,1.6,3.79,3.79,0,0,1,.41,1.7,7.11,7.11,0,0,1-1,3.87,7.7,7.7,0,0,1-2.63,2.57,10.47,10.47,0,0,1-3.62,1.32,12.55,12.55,0,0,1-4,.09,4.14,4.14,0,0,1-1.62-1.1,7,7,0,0,1-1.15-1.7,9.58,9.58,0,0,1-.89-3.94m2-.52a11.22,11.22,0,0,0,.19,2,6,6,0,0,0,.65,1.82,3.84,3.84,0,0,0,1.21,1.32A3.38,3.38,0,0,0,386,264a9.33,9.33,0,0,0,2.65-.38,7,7,0,0,0,2.26-1.14,5.73,5.73,0,0,0,1.56-1.89A5.62,5.62,0,0,0,393,258a4.85,4.85,0,0,0-.6-2.2,4.27,4.27,0,0,0-1.29-1.38,5.54,5.54,0,0,0-1.7-.76c-.62-.16-1.21-.28-1.77-.38s-1.09-.18-1.56-.24a2.39,2.39,0,0,1-1-.29,2.12,2.12,0,0,0-1.6.63,4.49,4.49,0,0,0-.94,1.54,7.47,7.47,0,0,0-.43,1.87,15.84,15.84,0,0,0-.11,1.62m4.9-10.17a1.33,1.33,0,0,1-.5.28.68.68,0,0,1-.47,0,.59.59,0,0,1-.32-.38,1.74,1.74,0,0,1,0-.88,6.4,6.4,0,0,0,.86-.83l1-1.11a10.9,10.9,0,0,1,1-1,1.91,1.91,0,0,1,1-.49c.33,0,.53.05.61.17a1.08,1.08,0,0,1,.12.59,2.3,2.3,0,0,1-.4.92,6.73,6.73,0,0,1-.82,1,13.84,13.84,0,0,1-1,1c-.37.31-.7.57-1,.79"/><path class="cls-3" d="M404.34,261.21c-1.29,1.17-2.32,2.09-3.09,2.77a10.49,10.49,0,0,1-1.81,1.33q-.65.31-.9,0a2.5,2.5,0,0,1-.44-1.14l-1.44-13.69a.51.51,0,0,1,.22-.48.77.77,0,0,1,.5-.1,1.43,1.43,0,0,1,.56.19,1,1,0,0,1,.39.39l1.55,11.75c.26-.23.58-.55,1-1l1.26-1.24a15.45,15.45,0,0,1,1.26-1.06,1.77,1.77,0,0,1,1-.46,1.44,1.44,0,0,1,.82.38,5.65,5.65,0,0,1,.92,1,10.13,10.13,0,0,1,.85,1.38,7.53,7.53,0,0,1,.6,1.55h.15a2.43,2.43,0,0,0,.7-1.28c.23-.71.47-1.55.7-2.53s.47-2,.71-3.11.46-2.09.7-3a18.45,18.45,0,0,1,.69-2.23c.22-.57.45-.83.69-.77a1.53,1.53,0,0,1,.77.22.69.69,0,0,1,.4.66,14.9,14.9,0,0,0-1.26,2.85,21.35,21.35,0,0,0-.68,2.7c-.15.87-.27,1.71-.36,2.53s-.21,1.62-.35,2.39a15.11,15.11,0,0,1-.62,2.24,8.65,8.65,0,0,1-1.13,2.11,1,1,0,0,1-1.08-.29,6.58,6.58,0,0,1-1-1.2l-1-1.56a6.22,6.22,0,0,0-1.21-1.37"/><path class="cls-3" d="M221.46,26.92a17.48,17.48,0,0,0-1.16,1.45,28,28,0,0,0-4.8,12.28A27.89,27.89,0,0,0,216.05,51a32.07,32.07,0,0,0,2,5.61,39.58,39.58,0,0,0,3.12,5.6q3.65,5.68,8.21,11.47c1.5,1.94,3.08,3.88,4.61,6a28.26,28.26,0,0,1,3.89,7.09,37.21,37.21,0,0,1,1.9,7.81l.08.48,0,.25,0,.12,0,.19.1,1a20,20,0,0,1,.07,2.19,23.79,23.79,0,0,1-.45,4.22,26.51,26.51,0,0,1-3,7.92,27.64,27.64,0,0,1-5.29,6.67,26.47,26.47,0,0,1-3.39,2.66c-.58.41-1.21.76-1.83,1.13s-1.26.67-1.92,1a28.31,28.31,0,0,1-8.14,2.33,33.27,33.27,0,0,1-8.1,0c-.29,0-.67-.1-1-.15l-1-.18c-.64-.16-1.29-.29-1.91-.48s-1.26-.36-1.85-.6l-.9-.33c-.3-.12-.58-.26-.87-.38a26.2,26.2,0,0,1-10.73-8.64,19.54,19.54,0,0,1-3.79-10.69,16.5,16.5,0,0,1,.62-4.7c.1-.35.21-.7.32-1s.27-.64.4-1a16,16,0,0,1,.84-1.71,19.81,19.81,0,0,1,3.47-4.33c.48-.42.86-.73,1.11-.94l.39-.31.39.34s-.36.56-1.05,1.55a24.73,24.73,0,0,0-2.31,4.53,16,16,0,0,0,.08,11.8,17.92,17.92,0,0,0,2.58,4.42,21.3,21.3,0,0,0,4.07,4,23.73,23.73,0,0,0,5.38,3l.74.29.76.26c.51.18,1,.3,1.56.45s1.07.22,1.6.34l.77.11c.27,0,.49.08.82.1a28.08,28.08,0,0,0,6.91-.24,23.43,23.43,0,0,0,12.43-6,24,24,0,0,0,4.35-5.52,23,23,0,0,0,2.49-6.54,18.9,18.9,0,0,0,.41-3.42c0-.6,0-1.07,0-1.65l-.09-1-.12-.86a46.73,46.73,0,0,0-1.36-7.12c-.17-.57-.38-1.11-.55-1.67s-.43-1.09-.66-1.63-.49-1.07-.77-1.6-.55-1.07-.87-1.6c-1.19-2.12-2.53-4.23-3.8-6.34s-2.5-4.19-3.7-6.23c-.59-1-1.16-2-1.75-3l-1.67-3A38.91,38.91,0,0,1,215,51.16a30.25,30.25,0,0,1-.22-10.6,30.61,30.61,0,0,1,2.41-7.83,28.59,28.59,0,0,1,2.65-4.62A17.11,17.11,0,0,1,221,26.59Z"/><path class="cls-3" d="M212.19,40.45s0,.39-.07,1.09-.2,1.72-.45,3a42.37,42.37,0,0,1-1.19,4.57,46.85,46.85,0,0,1-2.23,5.75,52.86,52.86,0,0,1-3.53,6.44,61.89,61.89,0,0,1-4.92,6.63c-.93,1.11-1.93,2.18-3,3.27s-2.12,2.12-3.15,3.18a62.54,62.54,0,0,0-5.77,6.81,46.93,46.93,0,0,0-4.48,7.49,32.52,32.52,0,0,0-2.62,7.77,22.59,22.59,0,0,0-.23,7.39,19.65,19.65,0,0,0,2,6.26,33.4,33.4,0,0,0,3.08,4.82c1,1.39,2.05,2.58,2.91,3.56l2,2.31c.48.54.73.85.73.85l-.31.41s-.39-.12-1.1-.4a22.29,22.29,0,0,1-7-4.59,20.4,20.4,0,0,1-4-5.31,21.85,21.85,0,0,1-2.34-7.45,23.35,23.35,0,0,1,.56-8.56,32.24,32.24,0,0,1,3.4-8.37A49.42,49.42,0,0,1,186,79.82a72.06,72.06,0,0,1,6.4-6.66c1.14-1,2.25-2,3.3-3s2.06-2,3-3.08a59.07,59.07,0,0,0,5-6.35,52.85,52.85,0,0,0,3.69-6.21,48.37,48.37,0,0,0,2.39-5.58,38.9,38.9,0,0,0,1.27-4.49,29.62,29.62,0,0,0,.51-2.94c.08-.69.09-1.05.09-1.05Z"/><path class="cls-3" d="M223.05,85.92A9.44,9.44,0,0,1,225.93,88,12.66,12.66,0,0,1,227,89.32,12.42,12.42,0,0,1,228,91a10.41,10.41,0,0,1,.73,2,9.8,9.8,0,0,1,.32,2.17,9.09,9.09,0,0,1-.18,2.21,6.25,6.25,0,0,1-.28,1,8.33,8.33,0,0,1-.39,1,9.09,9.09,0,0,1-1,1.7,10.93,10.93,0,0,1-1.16,1.32,11.85,11.85,0,0,1-1.15.92,8.12,8.12,0,0,1-1,.59,9.8,9.8,0,0,1-.9.42l-.38-.36s.13-.33.38-.84c.14-.25.26-.57.43-.91s.32-.74.51-1.15c.09-.2.16-.42.25-.64a5.49,5.49,0,0,0,.24-.68,4.21,4.21,0,0,0,.23-.71,6,6,0,0,0,.19-.73,6.24,6.24,0,0,0,.16-.75c0-.12,0-.25.07-.38l0-.38a13.37,13.37,0,0,0,.07-1.56,7,7,0,0,0,0-.79c0-.26,0-.53-.09-.79s-.09-.52-.13-.79-.11-.52-.18-.77c-.12-.51-.28-1-.43-1.49s-.32-.94-.48-1.36c-.33-.85-.64-1.58-.86-2.1-.12-.26-.2-.47-.27-.61a2.19,2.19,0,0,0-.09-.22Z"/><path class="cls-3" d="M288.85,18.25a8.15,8.15,0,0,0-.64.8,15.38,15.38,0,0,0-2.65,6.76,15.5,15.5,0,0,0,.31,5.68A17.79,17.79,0,0,0,287,34.58a20.58,20.58,0,0,0,1.72,3.08A77,77,0,0,0,293.19,44c.82,1.07,1.69,2.13,2.53,3.3a15.84,15.84,0,0,1,2.15,3.9,20.87,20.87,0,0,1,1,4.3l0,.27,0,.13v.17l.06.53c0,.38.05.83,0,1.21a12,12,0,0,1-.25,2.32,14.52,14.52,0,0,1-1.62,4.36,15.4,15.4,0,0,1-4.78,5.14c-.32.22-.67.42-1,.62s-.7.37-1.06.53A15.67,15.67,0,0,1,285.89,72a18.49,18.49,0,0,1-4.46,0c-.16,0-.37,0-.55-.08l-.57-.1c-.35-.09-.71-.16-1.05-.26s-.69-.2-1-.33l-.5-.19c-.16-.06-.32-.14-.48-.21a14.35,14.35,0,0,1-5.9-4.75,10.72,10.72,0,0,1-2.09-5.89,9.55,9.55,0,0,1,.34-2.59l.18-.56c.06-.18.15-.35.22-.52a8.23,8.23,0,0,1,.46-.94,11,11,0,0,1,1.91-2.39l.61-.52.22-.17.22.19s-.2.31-.59.85a14.15,14.15,0,0,0-1.27,2.5,9.14,9.14,0,0,0-.56,4.06,8.93,8.93,0,0,0,.61,2.43A9.68,9.68,0,0,0,273,65a11.92,11.92,0,0,0,2.24,2.18,13,13,0,0,0,3,1.64l.41.16.42.14a7.61,7.61,0,0,0,.85.25c.29.08.59.12.88.19l.43.06a2.94,2.94,0,0,0,.45,0,14.66,14.66,0,0,0,3.8-.13,12.77,12.77,0,0,0,9.24-6.35,12.34,12.34,0,0,0,1.37-3.59,10.17,10.17,0,0,0,.23-1.89c0-.33,0-.59,0-.91l0-.52-.07-.48a25.42,25.42,0,0,0-.75-3.92c-.09-.31-.2-.61-.3-.92l-.36-.89c-.15-.3-.27-.59-.43-.88s-.3-.59-.48-.88c-.65-1.17-1.39-2.34-2.09-3.49s-1.37-2.31-2-3.43c-.32-.57-.63-1.13-1-1.68l-.92-1.63a21.65,21.65,0,0,1-2.55-6.5,17,17,0,0,1-.12-5.84,16.52,16.52,0,0,1,1.33-4.31A15.65,15.65,0,0,1,288,18.9a8.44,8.44,0,0,1,.64-.83Z"/><path class="cls-3" d="M283.74,25.7s0,.21,0,.6-.11.94-.25,1.65a22.24,22.24,0,0,1-.66,2.52,25.16,25.16,0,0,1-1.23,3.17,28.65,28.65,0,0,1-1.94,3.54,32.11,32.11,0,0,1-2.71,3.65c-.51.61-1.06,1.2-1.62,1.8s-1.17,1.17-1.74,1.75a35.5,35.5,0,0,0-3.17,3.75,25.77,25.77,0,0,0-2.47,4.13,18.38,18.38,0,0,0-1.44,4.27,12.78,12.78,0,0,0-.13,4.07,10.91,10.91,0,0,0,1.09,3.45,18.66,18.66,0,0,0,1.7,2.65c.57.77,1.13,1.42,1.6,2l1.12,1.27.41.47-.17.23s-.22-.07-.61-.23a12.28,12.28,0,0,1-3.84-2.52A11.41,11.41,0,0,1,265.47,65a11.74,11.74,0,0,1-1.29-4.1,13,13,0,0,1,.3-4.71,18.05,18.05,0,0,1,1.88-4.6,26.81,26.81,0,0,1,2.94-4.17,39.55,39.55,0,0,1,3.53-3.67c.62-.57,1.23-1.1,1.81-1.66s1.13-1.12,1.66-1.69a33.13,33.13,0,0,0,2.77-3.5,27.33,27.33,0,0,0,2-3.42,26,26,0,0,0,1.32-3.07,22.89,22.89,0,0,0,.7-2.47c.15-.69.23-1.25.28-1.62s.05-.58.05-.58Z"/><path class="cls-3" d="M289.73,50.73a5.25,5.25,0,0,1,1.58,1.15,7.65,7.65,0,0,1,.61.72,6.24,6.24,0,0,1,.54.91,5.36,5.36,0,0,1,.41,1.08,5.88,5.88,0,0,1,.17,1.2,5,5,0,0,1-.1,1.21,3.8,3.8,0,0,1-.15.58,5,5,0,0,1-.21.54,5.43,5.43,0,0,1-.56.94,5.73,5.73,0,0,1-.64.72,7.87,7.87,0,0,1-.63.51c-.2.13-.38.24-.53.32a5,5,0,0,1-.5.23l-.2-.19a3.58,3.58,0,0,1,.2-.47c.08-.13.15-.31.24-.5s.18-.41.28-.63.09-.23.14-.36a2,2,0,0,0,.13-.37,2.55,2.55,0,0,0,.13-.39c0-.13.08-.26.1-.4s.07-.27.09-.41a1.55,1.55,0,0,1,0-.21l0-.21a8.12,8.12,0,0,0,0-.86c0-.14,0-.29,0-.43s0-.3-.05-.44-.05-.29-.08-.43,0-.29-.09-.43-.16-.56-.24-.82-.17-.52-.27-.75c-.17-.47-.35-.87-.47-1.16l-.14-.33a.67.67,0,0,1-.05-.12Z"/><path class="cls-3" d="M139.87,92.43a6.21,6.21,0,0,0-.43.54,10.21,10.21,0,0,0-1,1.7,10,10,0,0,0-.83,2.89,10.27,10.27,0,0,0,.21,3.85,11.08,11.08,0,0,0,.73,2.09,14.44,14.44,0,0,0,1.16,2.09c.91,1.42,1.93,2.84,3.07,4.29.56.72,1.15,1.45,1.72,2.24a10.69,10.69,0,0,1,1.45,2.64,14,14,0,0,1,.71,2.92l0,.18,0,.09v.12l0,.35a7.54,7.54,0,0,1,0,.82,8.39,8.39,0,0,1-.17,1.58,9.83,9.83,0,0,1-1.1,3,10.11,10.11,0,0,1-2,2.49,10.25,10.25,0,0,1-1.26,1c-.22.15-.45.28-.68.42s-.48.25-.72.36a10.65,10.65,0,0,1-3,.87,12.2,12.2,0,0,1-3,0,2.84,2.84,0,0,1-.38,0l-.38-.07c-.24-.06-.49-.11-.72-.18s-.47-.13-.69-.22l-.33-.13-.33-.14a9.7,9.7,0,0,1-4-3.22,7.24,7.24,0,0,1-1.42-4,6.1,6.1,0,0,1,.23-1.76l.12-.38.15-.36a4.63,4.63,0,0,1,.32-.63,7.23,7.23,0,0,1,1.29-1.62c.18-.16.32-.27.42-.35l.14-.12.15.13-.4.58a9.56,9.56,0,0,0-.86,1.69,6.21,6.21,0,0,0-.38,2.76,6.46,6.46,0,0,0,.41,1.64,7.42,7.42,0,0,0,1,1.66,8,8,0,0,0,1.53,1.47,8.82,8.82,0,0,0,2,1.12l.28.11.28.09c.19.07.39.11.58.17l.6.13.29,0,.31,0a11.17,11.17,0,0,0,2.58-.09,8.81,8.81,0,0,0,4.64-2.25,9.27,9.27,0,0,0,1.62-2.06,8.61,8.61,0,0,0,.93-2.44,6.88,6.88,0,0,0,.15-1.28c0-.22,0-.4,0-.61l0-.36,0-.32a18.42,18.42,0,0,0-.51-2.66c-.06-.21-.14-.41-.21-.62l-.24-.61-.29-.6c-.11-.2-.21-.4-.32-.59-.45-.8-.95-1.59-1.42-2.37s-.94-1.57-1.39-2.33c-.21-.38-.43-.76-.65-1.13l-.62-1.11a14.47,14.47,0,0,1-1.73-4.41,11.08,11.08,0,0,1-.08-4,11.2,11.2,0,0,1,.9-2.92,10.06,10.06,0,0,1,1-1.73,6.69,6.69,0,0,1,.43-.56Z"/><path class="cls-3" d="M136.41,97.48s0,.15,0,.41-.08.64-.17,1.12a16.1,16.1,0,0,1-.44,1.71,17.69,17.69,0,0,1-.84,2.14,18.68,18.68,0,0,1-1.31,2.41,23.29,23.29,0,0,1-1.84,2.48c-.35.41-.72.81-1.1,1.21s-.79.8-1.18,1.19a23.66,23.66,0,0,0-2.15,2.54,18.37,18.37,0,0,0-1.68,2.8,12.68,12.68,0,0,0-1,2.9,8.34,8.34,0,0,0-.09,2.76,7.47,7.47,0,0,0,.74,2.34,13.65,13.65,0,0,0,1.15,1.8c.39.52.77,1,1.09,1.33l.76.86.27.31-.11.16-.41-.15a7.62,7.62,0,0,1-1.1-.56,8.05,8.05,0,0,1-1.51-1.16,7.64,7.64,0,0,1-1.48-2,8.09,8.09,0,0,1-.87-2.78,8.68,8.68,0,0,1,.21-3.19,12,12,0,0,1,1.26-3.13,18.46,18.46,0,0,1,2-2.82,25.61,25.61,0,0,1,2.39-2.49c.42-.39.84-.75,1.23-1.12s.77-.77,1.12-1.16a23.25,23.25,0,0,0,1.89-2.36,20.87,20.87,0,0,0,1.37-2.32,16.49,16.49,0,0,0,.89-2.09A14.07,14.07,0,0,0,136,99c.1-.47.16-.85.19-1.1a3.83,3.83,0,0,0,0-.39Z"/><path class="cls-3" d="M140.47,114.46a3.58,3.58,0,0,1,1.08.78c.13.14.27.3.41.48a4.62,4.62,0,0,1,.37.62,4.55,4.55,0,0,1,.27.73,3.69,3.69,0,0,1,.12.81,3.29,3.29,0,0,1-.07.83,1.86,1.86,0,0,1-.1.39,2.39,2.39,0,0,1-.15.37,3,3,0,0,1-.37.63,4.33,4.33,0,0,1-.44.49,3.15,3.15,0,0,1-.43.35,3.9,3.9,0,0,1-.36.22,2,2,0,0,1-.33.15l-.14-.13.14-.31.16-.35c.07-.12.12-.27.19-.42a2.34,2.34,0,0,0,.09-.24,2,2,0,0,0,.1-.26,2,2,0,0,0,.08-.26,2.68,2.68,0,0,0,.07-.27c0-.1.05-.19.06-.28s0-.1,0-.14l0-.15a5.49,5.49,0,0,0,0-.58,2.64,2.64,0,0,0,0-.29,1.53,1.53,0,0,0,0-.3,2.5,2.5,0,0,0-.05-.29c0-.1,0-.2-.07-.29a5.15,5.15,0,0,0-.16-.56c-.06-.18-.11-.35-.18-.51-.12-.31-.24-.59-.32-.78a1.91,1.91,0,0,0-.1-.23l0-.08Z"/><path class="cls-3" d="M330.65,68.15c.16-16.82.12-33.62-.38-50.43,0-1.17-2.26-1.17-2.3,0-.5,16.21-1.12,32.42-1.53,48.63-.43,16.66-2.07,33.84.19,50.43a1.37,1.37,0,0,0,2.65,0c2.2-16,1.21-32.53,1.37-48.63"/><path class="cls-3" d="M88.5,68.15c.17-16.82.12-33.62-.38-50.43,0-1.17-2.26-1.17-2.3,0-.5,16.21-1.11,32.42-1.53,48.63-.42,16.66-2.06,33.84.19,50.43a1.38,1.38,0,0,0,2.66,0c2.19-16,1.2-32.53,1.36-48.63"/><path class="cls-4" d="M329.24,132.64a54.34,54.34,0,0,0-.47-11,1.14,1.14,0,0,0-2.18,0,67.89,67.89,0,0,0-.87,9.45c-.2,3.48-1,7.73.31,11a1.3,1.3,0,0,0,2.47,0c1.21-2.9.69-6.38.74-9.49"/><path class="cls-4" d="M87.9,132.64a54.34,54.34,0,0,0-.47-11,1.14,1.14,0,0,0-2.19,0,71.08,71.08,0,0,0-.87,9.45c-.19,3.48-1,7.73.32,11a1.29,1.29,0,0,0,2.46,0c1.21-2.9.69-6.38.75-9.49"/><path class="cls-4" d="M339.81,147c-7-2.85-18.36-3.39-24.66,1.31-.79.59-.36,2.11.73,1.72a32,32,0,0,1,12.82-1.43c3.65.2,7.5,1.11,11.11.18a.93.93,0,0,0,0-1.78"/><path class="cls-4" d="M73.75,147c7-2.85,18.37-3.39,24.66,1.31.79.59.37,2.11-.72,1.72a32,32,0,0,0-12.82-1.43c-3.66.2-7.51,1.11-11.12.18a.93.93,0,0,1,0-1.78"/><path class="cls-3" d="M333.08,4.07C291.53-.61,249.28-.41,207.49.57q-31,.74-61.91,2.43c-10.25.55-20.5,1-30.78,1.37s-20.73.07-31,.87c-1.58.12-1.6,2,0,2.11,19.62,2,40.24.22,59.88-.74,21.25-1.05,42.51-1.9,63.79-2.39,41.91-.95,83.72.28,125.61,1.41,1.2,0,1.15-1.43,0-1.56"/></g></g></svg>